<?xml version="1.0" encoding="utf-8"?>
<!-- Generator: Adobe Illustrator 27.2.0, SVG Export Plug-In . SVG Version: 6.00 Build 0)  -->
<svg version="1.1" xmlns="http://www.w3.org/2000/svg" xmlns:xlink="http://www.w3.org/1999/xlink" x="0px" y="0px"
	 viewBox="0 0 5845.7 3288.2" style="enable-background:new 0 0 5845.7 3288.2;" xml:space="preserve">
<style type="text/css">
	.st0{fill:#070707;}
	.st1{clip-path:url(#SVGID_00000088122870286391277970000001342774454912701109_);}
	.st2{fill:#2C2C2C;}
	.st3{fill:#131313;}
	.st4{fill:#1F1F1F;}
	.st5{fill:#111111;}
	.st6{fill:#1A1A1A;}
	.st7{fill:#232323;}
	.st8{fill:#161616;}
	.st9{fill:#171717;}
	.st10{fill:#0B0B0B;}
</style>
<g id="Background">
	<g>
		<rect x="0" class="st0" width="5845.7" height="3288.2"/>
	</g>
</g>
<g id="Object">
	<g>
		<defs>
			<rect id="SVGID_1_" x="0" width="5845.7" height="3288.2"/>
		</defs>
		<clipPath id="SVGID_00000177471556113430703400000002938353730202968465_">
			<use xlink:href="#SVGID_1_"  style="overflow:visible;"/>
		</clipPath>
		<g style="clip-path:url(#SVGID_00000177471556113430703400000002938353730202968465_);">
			<g>
				<polygon class="st2" points="2516.9,230.9 2201.7,502 1955.8,379.3 				"/>
				<polygon class="st3" points="2516.9,230.9 2200.4,803.9 2201.7,502 				"/>
				<polygon class="st4" points="2201.7,502 2200.4,803.9 1955.8,379.3 				"/>
			</g>
			<g>
				<path class="st2" d="M5355.9,842c7.7,0,541.3,44.2,541.3,44.2l-441.4,147.1L5355.9,842z"/>
				<path class="st4" d="M5355.9,842l99.9,191.3l-307.3,483.9C5150.3,1510.9,5348.2,842,5355.9,842z"/>
				<polygon class="st5" points="5897.2,886.2 5148.5,1517.2 5148.5,1517.2 5455.8,1033.3 				"/>
			</g>
			<g>
				<path class="st2" d="M6210.2,608.5c-2.3,5.7-201.9,385.4-201.9,385.4l-9.9-368.3L6210.2,608.5z"/>
				<path class="st4" d="M6210.2,608.5l-211.8,17.1l-370.4-369C5633.4,259.8,6212.4,602.9,6210.2,608.5z"/>
				<polygon class="st5" points="6008.3,993.9 5627.9,256.6 5628,256.6 5998.4,625.6 				"/>
			</g>
			<g>
				<polygon class="st6" points="4502.1,697.9 4265.9,106.2 4387.4,-369.6 				"/>
				<polygon class="st2" points="4265.9,106.2 3854.9,-6.6 4387.4,-369.6 				"/>
				<polygon class="st5" points="4502.1,697.9 3854.9,-6.6 4265.9,106.2 				"/>
			</g>
			<g>
				<polygon class="st2" points="4967.1,886.2 4878,1128.3 4761.5,751.5 				"/>
				<polygon class="st6" points="5426,644.1 4967.1,886.2 4761.5,751.5 				"/>
				<polygon class="st5" points="5426,644.1 4878,1128.3 4967.1,886.2 				"/>
			</g>
			<g>
				<polygon class="st2" points="1658,2344.8 1369.5,2324.3 1759.9,2138 				"/>
				<polygon class="st6" points="2031.6,2681.7 1658,2344.8 1759.9,2138 				"/>
				<polygon class="st5" points="2031.6,2681.7 1369.5,2324.3 1658,2344.8 				"/>
			</g>
			<g>
				<polygon class="st2" points="815.3,1686.7 526.8,1666.2 917.2,1479.9 				"/>
				<polygon class="st6" points="1189,2023.6 815.3,1686.7 917.2,1479.9 				"/>
				<polygon class="st5" points="1189,2023.6 526.8,1666.2 815.3,1686.7 				"/>
			</g>
			<g>
				<polygon class="st2" points="489.1,1380.8 465.7,1569.9 315.4,1309.6 				"/>
				<polygon class="st6" points="783.4,1142.4 489.1,1380.8 315.4,1309.6 				"/>
				<polygon class="st5" points="783.4,1142.4 465.7,1569.9 489.1,1380.8 				"/>
			</g>
			<g>
				<polygon class="st2" points="5662.4,29.7 5715.1,214.2 5471.3,15.9 				"/>
				<polygon class="st6" points="5844.2,-283.7 5662.4,29.7 5471.3,15.9 				"/>
				<polygon class="st5" points="5844.2,-283.7 5715.1,214.2 5662.4,29.7 				"/>
			</g>
			<g>
				<polygon class="st7" points="2306.5,-119.9 2244.2,79.1 1882.2,289.7 				"/>
				<polygon class="st6" points="2306.5,-119.9 2416.3,181.7 2244.2,79.1 				"/>
				<polygon class="st5" points="2416.3,181.7 1882.2,289.7 2244.2,79.1 				"/>
			</g>
			<g>
				<polygon class="st7" points="4375.9,2679.3 4347.6,2867.9 4047.3,3100.4 				"/>
				<polygon class="st6" points="4375.9,2679.3 4519.4,2942.6 4347.6,2867.9 				"/>
				<polygon class="st5" points="4519.4,2942.6 4047.3,3100.4 4347.6,2867.9 				"/>
			</g>
			<g>
				<polygon class="st7" points="5712.3,1236.9 5769.6,1420.4 5595.6,1737.1 				"/>
				<polygon class="st6" points="5712.3,1236.9 5960.9,1430.5 5769.6,1420.4 				"/>
				<polygon class="st5" points="5960.9,1430.5 5595.6,1737.1 5769.6,1420.4 				"/>
			</g>
			<g>
				<polygon class="st7" points="2013.1,2814 1800.4,2849.4 1455.3,2671.3 				"/>
				<polygon class="st6" points="2013.1,2814 1773.4,3016.1 1800.4,2849.4 				"/>
				<polygon class="st5" points="1773.4,3016.1 1455.3,2671.3 1800.4,2849.4 				"/>
			</g>
			<g>
				<polygon class="st7" points="-84.3,778.9 3.5,984.1 -158,1363.9 				"/>
				<polygon class="st6" points="-84.3,778.9 224.4,978 3.5,984.1 				"/>
				<polygon class="st5" points="224.4,978 -158,1363.9 3.5,984.1 				"/>
			</g>
			<g>
				<polygon class="st6" points="1992.7,-144.5 1700.5,537.3 1544.5,224.3 				"/>
				<polygon class="st7" points="1992.7,-144.5 1544.5,224.3 530.6,-173.9 				"/>
				<polygon class="st5" points="1544.5,224.3 1700.5,537.3 530.6,-173.9 				"/>
			</g>
			<g>
				<path class="st6" d="M-133.2,93.9c0,0,276.8,104.5,276.1,104.6l-411,634L-133.2,93.9z"/>
				<path class="st7" d="M654.9-19.5c0,0-512.7,218.1-512,218c0.6-0.1-276.1-104.6-276.1-104.6L186.4-99.6L654.9-19.5z"/>
				<path class="st5" d="M142.9,198.5c-0.6,0.1,512-218,512-218c4.5,1-923.1,852-923.1,852L142.9,198.5z"/>
			</g>
			<g>
				<polygon class="st7" points="1882.2,680.4 796.4,785.7 621.6,507.1 				"/>
				<polygon class="st6" points="621.6,507.1 796.4,785.7 146.1,1255.9 146.1,1256 				"/>
				<path class="st5" d="M796.4,785.7l1085.9-105.3c0,0-1723.3,570.4-1736.1,575.6L796.4,785.7z"/>
			</g>
			<g>
				<polygon class="st6" points="5275.6,-220.1 5641.9,651 5260.3,219.3 				"/>
				<polygon class="st2" points="5275.6,-220.1 5260.3,219.3 4545.7,389.9 				"/>
				<polygon class="st5" points="5260.3,219.3 5641.9,651 4545.7,389.9 				"/>
			</g>
			<g>
				<polygon class="st6" points="4001.8,289.8 3105.8,274.2 2978.8,-332.9 3563.3,22.9 				"/>
				<polygon class="st7" points="2978.8,-332.9 3105.8,274.2 2272.8,828.8 				"/>
				<polygon class="st5" points="4001.8,289.8 2884.8,638 2272.8,828.8 3105.8,274.2 				"/>
			</g>
			<g>
				<polygon class="st6" points="171.9,1751.8 125.8,1978.4 -202,1782.5 				"/>
				<polygon class="st6" points="224.4,1508.7 650.8,1978.4 171.9,1751.8 43.8,1309.8 				"/>
				<polygon class="st2" points="43.8,1309.8 171.9,1751.8 -202,1782.5 				"/>
				<polygon class="st3" points="650.8,1978.4 125.8,1978.4 171.9,1751.8 				"/>
			</g>
			<g>
				<polygon class="st2" points="-74.8,2065.1 295.9,2348.8 -355.1,2798.3 				"/>
				<polygon class="st6" points="-74.8,2065.1 1568.4,2118 295.9,2348.8 				"/>
				<polygon class="st3" points="1568.4,2118 1229,2238.1 482.9,2501.9 480.9,2501.7 480.5,2502.8 -355.1,2798.3 295.9,2348.8 				
					"/>
			</g>
			<g>
				<polygon class="st2" points="2939.7,2444.8 3011.1,2749.4 2633,3075.8 				"/>
				<polygon class="st4" points="3324.7,2721.5 3011.1,2749.4 2939.7,2444.8 				"/>
				<polygon class="st5" points="3324.7,2721.5 2633,3075.8 3011.1,2749.4 				"/>
			</g>
			<g>
				<polygon class="st2" points="4419.2,2414.2 3273,3330.7 2388.4,3471.1 				"/>
				<polygon class="st8" points="3432.9,3664.3 2388.4,3471.1 3273,3330.7 				"/>
				<polygon class="st5" points="4419.2,2414.2 3432.9,3664.3 3273,3330.7 				"/>
			</g>
			<g>
				<polygon class="st6" points="1263.3,2636.2 1839.4,3235.4 1036.6,3085.1 1261.6,2635.7 				"/>
				<polygon class="st2" points="1261.6,2635.7 1036.6,3085.1 -208,3319.2 1260.9,2635.4 				"/>
				<polygon class="st4" points="1839.4,3235.4 1262,3706.3 1036.6,3085.1 				"/>
				<polygon class="st3" points="1036.6,3085.1 1262,3706.3 -208,3319.2 				"/>
			</g>
			<g>
				<polygon class="st4" points="2287.4,2528.2 2495,3241.8 2236.3,3160.7 				"/>
				<polygon class="st9" points="2287.4,2528.2 2236.3,3160.7 1803.5,3484.9 2114.6,2869.8 				"/>
				<polygon class="st10" points="2495,3241.8 1803.5,3484.9 2236.3,3160.7 				"/>
			</g>
			<g>
				<polygon class="st4" points="4940.7,1579.9 4909.8,2315.9 4687.9,2173.8 				"/>
				<polygon class="st9" points="4940.7,1579.9 4687.9,2173.8 4168.3,2376.8 4664.9,1864.5 				"/>
				<polygon class="st10" points="4909.8,2315.9 4168.3,2376.8 4687.9,2173.8 				"/>
			</g>
			<g>
				<polygon class="st6" points="5732.5,2858.4 6020.2,3067.4 5759.7,3074.9 				"/>
				<polygon class="st7" points="5732.5,2858.4 5759.7,3074.9 5486.3,3349.4 5642,3039 5642,3039 				"/>
				<polygon class="st5" points="6020.2,3067.4 5486.3,3349.4 5759.7,3074.9 				"/>
			</g>
			<g>
				<polygon class="st6" points="5120.2,2593.5 4984.8,2793.8 4950.3,2634 				"/>
				<polygon class="st7" points="5120.2,2593.5 4950.3,2634 4701.2,2495.3 4966.1,2557.4 4966.1,2557.4 				"/>
				<polygon class="st5" points="4984.8,2793.8 4701.2,2495.3 4950.3,2634 				"/>
			</g>
			<g>
				<polygon class="st6" points="346.8,2610.2 581.9,2843.7 336,2817 				"/>
				<polygon class="st7" points="346.8,2610.2 336,2817 33.2,3039.2 231.5,2767.9 231.5,2767.9 				"/>
				<polygon class="st5" points="581.9,2843.7 33.2,3039.2 336,2817 				"/>
			</g>
			<g>
				<polygon class="st6" points="6146.4,1821.1 5675.1,2218.6 5219.3,1782.5 				"/>
				<path class="st7" d="M6009.3,2839.7L6009.3,2839.7c0,0-931.9-633.7-968.5-645.9l634.2,24.8L6009.3,2839.7z"/>
				<polygon class="st5" points="6146.4,1821.1 6009.3,2839.7 5675.1,2218.6 				"/>
				<path class="st5" d="M5219.3,1782.5l455.8,436.1l-634.2-24.8c-0.4-0.1-0.7-0.2-0.8-0.2C5048,2179.6,5219.3,1782.5,5219.3,1782.5
					z"/>
			</g>
			<g>
				<polygon class="st7" points="5433.2,2793.1 5388.7,3367 5096.8,3218.5 				"/>
				<path class="st6" d="M4845.8,2934.9l251,283.6l-955.2,369.1C4147,3582.6,4838.1,2937.1,4845.8,2934.9z"/>
				<path class="st5" d="M5433.2,2793.1l-336.4,425.4l-251-283.6C4853.5,2932.6,5433.2,2793.1,5433.2,2793.1z"/>
				<polygon class="st5" points="5388.7,3367 4141.5,3587.6 4141.5,3587.6 5096.8,3218.5 				"/>
			</g>
		</g>
	</g>
</g>
</svg>
